<mxfile host="app.diagrams.net" modified="2023-08-28T04:53:41.950Z" agent="Mozilla/5.0 (Windows NT 10.0; Win64; x64) AppleWebKit/537.36 (KHTML, like Gecko) Chrome/116.0.0.0 Safari/537.36" etag="yNqFaR7UWF7hg9Ly27fH" version="21.6.9" type="device">
  <diagram name="페이지-1" id="Do3YkAR-vagwlhZgK75V">
    <mxGraphModel dx="842" dy="440" grid="0" gridSize="10" guides="1" tooltips="1" connect="1" arrows="1" fold="1" page="0" pageScale="1" pageWidth="827" pageHeight="1169" math="0" shadow="0">
      <root>
        <mxCell id="0" />
        <mxCell id="1" parent="0" />
        <mxCell id="Fzpn6xG40_pzFE--JXgi-27" style="edgeStyle=orthogonalEdgeStyle;rounded=0;orthogonalLoop=1;jettySize=auto;html=1;" edge="1" parent="1" source="Fzpn6xG40_pzFE--JXgi-1">
          <mxGeometry relative="1" as="geometry">
            <mxPoint x="670" y="340" as="targetPoint" />
          </mxGeometry>
        </mxCell>
        <mxCell id="Fzpn6xG40_pzFE--JXgi-33" style="edgeStyle=orthogonalEdgeStyle;rounded=0;orthogonalLoop=1;jettySize=auto;html=1;entryX=1;entryY=0.5;entryDx=0;entryDy=0;" edge="1" parent="1" source="Fzpn6xG40_pzFE--JXgi-1" target="Fzpn6xG40_pzFE--JXgi-2">
          <mxGeometry relative="1" as="geometry" />
        </mxCell>
        <mxCell id="Fzpn6xG40_pzFE--JXgi-1" value="HA" style="rounded=1;whiteSpace=wrap;html=1;" vertex="1" parent="1">
          <mxGeometry x="640" y="250" width="60" height="60" as="geometry" />
        </mxCell>
        <mxCell id="Fzpn6xG40_pzFE--JXgi-28" style="edgeStyle=orthogonalEdgeStyle;rounded=0;orthogonalLoop=1;jettySize=auto;html=1;" edge="1" parent="1" source="Fzpn6xG40_pzFE--JXgi-2">
          <mxGeometry relative="1" as="geometry">
            <mxPoint x="580" y="340" as="targetPoint" />
          </mxGeometry>
        </mxCell>
        <mxCell id="Fzpn6xG40_pzFE--JXgi-34" style="edgeStyle=orthogonalEdgeStyle;rounded=0;orthogonalLoop=1;jettySize=auto;html=1;entryX=1;entryY=0.5;entryDx=0;entryDy=0;" edge="1" parent="1" source="Fzpn6xG40_pzFE--JXgi-2" target="Fzpn6xG40_pzFE--JXgi-3">
          <mxGeometry relative="1" as="geometry" />
        </mxCell>
        <mxCell id="Fzpn6xG40_pzFE--JXgi-2" value="FA" style="rounded=1;whiteSpace=wrap;html=1;" vertex="1" parent="1">
          <mxGeometry x="550" y="250" width="60" height="60" as="geometry" />
        </mxCell>
        <mxCell id="Fzpn6xG40_pzFE--JXgi-29" style="edgeStyle=orthogonalEdgeStyle;rounded=0;orthogonalLoop=1;jettySize=auto;html=1;" edge="1" parent="1" source="Fzpn6xG40_pzFE--JXgi-3">
          <mxGeometry relative="1" as="geometry">
            <mxPoint x="490" y="340" as="targetPoint" />
          </mxGeometry>
        </mxCell>
        <mxCell id="Fzpn6xG40_pzFE--JXgi-35" style="edgeStyle=orthogonalEdgeStyle;rounded=0;orthogonalLoop=1;jettySize=auto;html=1;entryX=1;entryY=0.5;entryDx=0;entryDy=0;" edge="1" parent="1" source="Fzpn6xG40_pzFE--JXgi-3" target="Fzpn6xG40_pzFE--JXgi-4">
          <mxGeometry relative="1" as="geometry" />
        </mxCell>
        <mxCell id="Fzpn6xG40_pzFE--JXgi-3" value="CLG2" style="rounded=1;whiteSpace=wrap;html=1;" vertex="1" parent="1">
          <mxGeometry x="460" y="250" width="60" height="60" as="geometry" />
        </mxCell>
        <mxCell id="Fzpn6xG40_pzFE--JXgi-30" style="edgeStyle=orthogonalEdgeStyle;rounded=0;orthogonalLoop=1;jettySize=auto;html=1;" edge="1" parent="1" source="Fzpn6xG40_pzFE--JXgi-4">
          <mxGeometry relative="1" as="geometry">
            <mxPoint x="400.0000000000001" y="340" as="targetPoint" />
          </mxGeometry>
        </mxCell>
        <mxCell id="Fzpn6xG40_pzFE--JXgi-36" style="edgeStyle=orthogonalEdgeStyle;rounded=0;orthogonalLoop=1;jettySize=auto;html=1;entryX=1;entryY=0.5;entryDx=0;entryDy=0;" edge="1" parent="1" source="Fzpn6xG40_pzFE--JXgi-4" target="Fzpn6xG40_pzFE--JXgi-5">
          <mxGeometry relative="1" as="geometry" />
        </mxCell>
        <mxCell id="Fzpn6xG40_pzFE--JXgi-4" value="CLG2" style="rounded=1;whiteSpace=wrap;html=1;" vertex="1" parent="1">
          <mxGeometry x="370" y="250" width="60" height="60" as="geometry" />
        </mxCell>
        <mxCell id="Fzpn6xG40_pzFE--JXgi-31" style="edgeStyle=orthogonalEdgeStyle;rounded=0;orthogonalLoop=1;jettySize=auto;html=1;" edge="1" parent="1" source="Fzpn6xG40_pzFE--JXgi-5">
          <mxGeometry relative="1" as="geometry">
            <mxPoint x="310" y="340" as="targetPoint" />
          </mxGeometry>
        </mxCell>
        <mxCell id="Fzpn6xG40_pzFE--JXgi-38" style="edgeStyle=orthogonalEdgeStyle;rounded=0;orthogonalLoop=1;jettySize=auto;html=1;entryX=1;entryY=0.5;entryDx=0;entryDy=0;" edge="1" parent="1" source="Fzpn6xG40_pzFE--JXgi-5" target="Fzpn6xG40_pzFE--JXgi-6">
          <mxGeometry relative="1" as="geometry" />
        </mxCell>
        <mxCell id="Fzpn6xG40_pzFE--JXgi-5" value="CLG4" style="rounded=1;whiteSpace=wrap;html=1;" vertex="1" parent="1">
          <mxGeometry x="280" y="250" width="60" height="60" as="geometry" />
        </mxCell>
        <mxCell id="Fzpn6xG40_pzFE--JXgi-32" style="edgeStyle=orthogonalEdgeStyle;rounded=0;orthogonalLoop=1;jettySize=auto;html=1;" edge="1" parent="1" source="Fzpn6xG40_pzFE--JXgi-6">
          <mxGeometry relative="1" as="geometry">
            <mxPoint x="220" y="340" as="targetPoint" />
          </mxGeometry>
        </mxCell>
        <mxCell id="Fzpn6xG40_pzFE--JXgi-6" value="CLG4_3" style="rounded=1;whiteSpace=wrap;html=1;" vertex="1" parent="1">
          <mxGeometry x="190" y="250" width="60" height="60" as="geometry" />
        </mxCell>
        <mxCell id="Fzpn6xG40_pzFE--JXgi-13" style="edgeStyle=orthogonalEdgeStyle;rounded=0;orthogonalLoop=1;jettySize=auto;html=1;exitX=0.25;exitY=1;exitDx=0;exitDy=0;entryX=0.25;entryY=0;entryDx=0;entryDy=0;" edge="1" parent="1" source="Fzpn6xG40_pzFE--JXgi-7" target="Fzpn6xG40_pzFE--JXgi-1">
          <mxGeometry relative="1" as="geometry" />
        </mxCell>
        <mxCell id="Fzpn6xG40_pzFE--JXgi-14" style="edgeStyle=orthogonalEdgeStyle;rounded=0;orthogonalLoop=1;jettySize=auto;html=1;exitX=0.75;exitY=1;exitDx=0;exitDy=0;entryX=0.75;entryY=0;entryDx=0;entryDy=0;" edge="1" parent="1" source="Fzpn6xG40_pzFE--JXgi-7" target="Fzpn6xG40_pzFE--JXgi-1">
          <mxGeometry relative="1" as="geometry" />
        </mxCell>
        <mxCell id="Fzpn6xG40_pzFE--JXgi-7" value="A[0] B[0]" style="text;html=1;strokeColor=none;fillColor=none;align=center;verticalAlign=middle;whiteSpace=wrap;rounded=0;" vertex="1" parent="1">
          <mxGeometry x="640" y="190" width="60" height="30" as="geometry" />
        </mxCell>
        <mxCell id="Fzpn6xG40_pzFE--JXgi-15" style="edgeStyle=orthogonalEdgeStyle;rounded=0;orthogonalLoop=1;jettySize=auto;html=1;exitX=0.25;exitY=1;exitDx=0;exitDy=0;entryX=0.25;entryY=0;entryDx=0;entryDy=0;" edge="1" parent="1" source="Fzpn6xG40_pzFE--JXgi-8" target="Fzpn6xG40_pzFE--JXgi-2">
          <mxGeometry relative="1" as="geometry" />
        </mxCell>
        <mxCell id="Fzpn6xG40_pzFE--JXgi-16" style="edgeStyle=orthogonalEdgeStyle;rounded=0;orthogonalLoop=1;jettySize=auto;html=1;exitX=0.75;exitY=1;exitDx=0;exitDy=0;entryX=0.75;entryY=0;entryDx=0;entryDy=0;" edge="1" parent="1" source="Fzpn6xG40_pzFE--JXgi-8" target="Fzpn6xG40_pzFE--JXgi-2">
          <mxGeometry relative="1" as="geometry" />
        </mxCell>
        <mxCell id="Fzpn6xG40_pzFE--JXgi-8" value="A[1] B[1]" style="text;html=1;strokeColor=none;fillColor=none;align=center;verticalAlign=middle;whiteSpace=wrap;rounded=0;" vertex="1" parent="1">
          <mxGeometry x="550" y="190" width="60" height="30" as="geometry" />
        </mxCell>
        <mxCell id="Fzpn6xG40_pzFE--JXgi-17" style="edgeStyle=orthogonalEdgeStyle;rounded=0;orthogonalLoop=1;jettySize=auto;html=1;exitX=0.287;exitY=0.991;exitDx=0;exitDy=0;entryX=0.25;entryY=0;entryDx=0;entryDy=0;exitPerimeter=0;" edge="1" parent="1" source="Fzpn6xG40_pzFE--JXgi-9" target="Fzpn6xG40_pzFE--JXgi-3">
          <mxGeometry relative="1" as="geometry" />
        </mxCell>
        <mxCell id="Fzpn6xG40_pzFE--JXgi-18" style="edgeStyle=orthogonalEdgeStyle;rounded=0;orthogonalLoop=1;jettySize=auto;html=1;exitX=0.714;exitY=1;exitDx=0;exitDy=0;entryX=0.75;entryY=0;entryDx=0;entryDy=0;exitPerimeter=0;" edge="1" parent="1" source="Fzpn6xG40_pzFE--JXgi-9" target="Fzpn6xG40_pzFE--JXgi-3">
          <mxGeometry relative="1" as="geometry" />
        </mxCell>
        <mxCell id="Fzpn6xG40_pzFE--JXgi-9" value="A[3:2] B[3:2]" style="text;html=1;strokeColor=none;fillColor=none;align=center;verticalAlign=middle;whiteSpace=wrap;rounded=0;" vertex="1" parent="1">
          <mxGeometry x="455" y="190" width="70" height="30" as="geometry" />
        </mxCell>
        <mxCell id="Fzpn6xG40_pzFE--JXgi-19" style="edgeStyle=orthogonalEdgeStyle;rounded=0;orthogonalLoop=1;jettySize=auto;html=1;exitX=0.75;exitY=1;exitDx=0;exitDy=0;entryX=0.794;entryY=-0.008;entryDx=0;entryDy=0;entryPerimeter=0;" edge="1" parent="1" source="Fzpn6xG40_pzFE--JXgi-10" target="Fzpn6xG40_pzFE--JXgi-4">
          <mxGeometry relative="1" as="geometry" />
        </mxCell>
        <mxCell id="Fzpn6xG40_pzFE--JXgi-20" style="edgeStyle=orthogonalEdgeStyle;rounded=0;orthogonalLoop=1;jettySize=auto;html=1;exitX=0.25;exitY=1;exitDx=0;exitDy=0;entryX=0.209;entryY=-0.001;entryDx=0;entryDy=0;entryPerimeter=0;" edge="1" parent="1" source="Fzpn6xG40_pzFE--JXgi-10" target="Fzpn6xG40_pzFE--JXgi-4">
          <mxGeometry relative="1" as="geometry" />
        </mxCell>
        <mxCell id="Fzpn6xG40_pzFE--JXgi-10" value="A[5:4] B[5:4]" style="text;html=1;strokeColor=none;fillColor=none;align=center;verticalAlign=middle;whiteSpace=wrap;rounded=0;" vertex="1" parent="1">
          <mxGeometry x="365" y="190" width="70" height="30" as="geometry" />
        </mxCell>
        <mxCell id="Fzpn6xG40_pzFE--JXgi-21" style="edgeStyle=orthogonalEdgeStyle;rounded=0;orthogonalLoop=1;jettySize=auto;html=1;exitX=0.75;exitY=1;exitDx=0;exitDy=0;entryX=0.794;entryY=-0.004;entryDx=0;entryDy=0;entryPerimeter=0;" edge="1" parent="1" source="Fzpn6xG40_pzFE--JXgi-11" target="Fzpn6xG40_pzFE--JXgi-5">
          <mxGeometry relative="1" as="geometry" />
        </mxCell>
        <mxCell id="Fzpn6xG40_pzFE--JXgi-22" style="edgeStyle=orthogonalEdgeStyle;rounded=0;orthogonalLoop=1;jettySize=auto;html=1;exitX=0.25;exitY=1;exitDx=0;exitDy=0;entryX=0.208;entryY=0.008;entryDx=0;entryDy=0;entryPerimeter=0;" edge="1" parent="1" source="Fzpn6xG40_pzFE--JXgi-11" target="Fzpn6xG40_pzFE--JXgi-5">
          <mxGeometry relative="1" as="geometry" />
        </mxCell>
        <mxCell id="Fzpn6xG40_pzFE--JXgi-11" value="A[9:6] B[9:6]" style="text;html=1;strokeColor=none;fillColor=none;align=center;verticalAlign=middle;whiteSpace=wrap;rounded=0;" vertex="1" parent="1">
          <mxGeometry x="275" y="190" width="70" height="30" as="geometry" />
        </mxCell>
        <mxCell id="Fzpn6xG40_pzFE--JXgi-25" style="edgeStyle=orthogonalEdgeStyle;rounded=0;orthogonalLoop=1;jettySize=auto;html=1;exitX=0.656;exitY=1.002;exitDx=0;exitDy=0;entryX=0.75;entryY=0;entryDx=0;entryDy=0;exitPerimeter=0;" edge="1" parent="1" source="Fzpn6xG40_pzFE--JXgi-12" target="Fzpn6xG40_pzFE--JXgi-6">
          <mxGeometry relative="1" as="geometry" />
        </mxCell>
        <mxCell id="Fzpn6xG40_pzFE--JXgi-26" style="edgeStyle=orthogonalEdgeStyle;rounded=0;orthogonalLoop=1;jettySize=auto;html=1;exitX=0.341;exitY=0.99;exitDx=0;exitDy=0;entryX=0.25;entryY=0;entryDx=0;entryDy=0;exitPerimeter=0;" edge="1" parent="1" source="Fzpn6xG40_pzFE--JXgi-12" target="Fzpn6xG40_pzFE--JXgi-6">
          <mxGeometry relative="1" as="geometry" />
        </mxCell>
        <mxCell id="Fzpn6xG40_pzFE--JXgi-12" value="A[13:10] B[13:10]" style="text;html=1;strokeColor=none;fillColor=none;align=center;verticalAlign=middle;whiteSpace=wrap;rounded=0;" vertex="1" parent="1">
          <mxGeometry x="172.5" y="190" width="95" height="30" as="geometry" />
        </mxCell>
        <mxCell id="Fzpn6xG40_pzFE--JXgi-39" value="out[0]" style="text;html=1;strokeColor=none;fillColor=none;align=center;verticalAlign=middle;whiteSpace=wrap;rounded=0;" vertex="1" parent="1">
          <mxGeometry x="640" y="340" width="60" height="30" as="geometry" />
        </mxCell>
        <mxCell id="Fzpn6xG40_pzFE--JXgi-40" value="out[1]" style="text;html=1;strokeColor=none;fillColor=none;align=center;verticalAlign=middle;whiteSpace=wrap;rounded=0;" vertex="1" parent="1">
          <mxGeometry x="550" y="340" width="60" height="30" as="geometry" />
        </mxCell>
        <mxCell id="Fzpn6xG40_pzFE--JXgi-41" value="out[3:2]" style="text;html=1;strokeColor=none;fillColor=none;align=center;verticalAlign=middle;whiteSpace=wrap;rounded=0;" vertex="1" parent="1">
          <mxGeometry x="460" y="340" width="60" height="30" as="geometry" />
        </mxCell>
        <mxCell id="Fzpn6xG40_pzFE--JXgi-42" value="out[5:4]" style="text;html=1;strokeColor=none;fillColor=none;align=center;verticalAlign=middle;whiteSpace=wrap;rounded=0;" vertex="1" parent="1">
          <mxGeometry x="370" y="340" width="60" height="30" as="geometry" />
        </mxCell>
        <mxCell id="Fzpn6xG40_pzFE--JXgi-43" value="out[9:6]" style="text;html=1;strokeColor=none;fillColor=none;align=center;verticalAlign=middle;whiteSpace=wrap;rounded=0;" vertex="1" parent="1">
          <mxGeometry x="280" y="340" width="60" height="30" as="geometry" />
        </mxCell>
        <mxCell id="Fzpn6xG40_pzFE--JXgi-44" value="out[13:10]" style="text;html=1;strokeColor=none;fillColor=none;align=center;verticalAlign=middle;whiteSpace=wrap;rounded=0;" vertex="1" parent="1">
          <mxGeometry x="190" y="340" width="60" height="30" as="geometry" />
        </mxCell>
      </root>
    </mxGraphModel>
  </diagram>
</mxfile>
